# xmcd CD database file
#
# Track frame offsets:
#	150
#	13245
#	42271
#	61434
#	81308
#	106921
#	131693
#	157825
#	182502
#	203783
#
# Disc length: 3003 seconds
#
# Revision: 0
# Processed by: cddbd v1.5.1PL2 Copyright (c) Steve Scherf et al.
# Submitted via: CDex 1.51
#
DISCID=7f0bb90a
DTITLE=Thomas Hufschmidt - Under Surface
DYEAR=2005
DGENRE=Jazz
TTITLE0=Prelude
TTITLE1=Trevignano 97
TTITLE2=Waltz For Sophia
TTITLE3=Great Escape
TTITLE4=Under Surface
TTITLE5=Mr. Stinger
TTITLE6=Trigance
TTITLE7=Flöckchen
TTITLE8=Himmelfahrt
TTITLE9=Lush Life
EXTD=YEAR: 2005
EXTT0=
EXTT1=
EXTT2=
EXTT3=
EXTT4=
EXTT5=
EXTT6=
EXTT7=
EXTT8=
EXTT9=
PLAYORDER=
